<svg xmlns="http://www.w3.org/2000/svg" xmlns:xlink="http://www.w3.org/1999/xlink" version="1.1" x="0px" y="0px" viewBox="0 0 100 100" enable-background="new 0 0 100 100" xml:space="preserve"><path fill="#000000" d="M85.8,64.6C79.6,49.7,75.6,43.1,68,43c-0.1,0-0.1,0-0.2,0c-7.2,0-13.2,3.2-17.7,9.4C44.9,46.2,38.8,43,32,43  c-7.6,0-11.6,6.7-17.8,21.6c-0.3,0.8-0.1,1.8,0.6,2.4c0.7,0.6,1.7,0.5,2.4,0c1.9-1.5,8.1-5.5,11.9-4.9c0.9,0.1,1.5,0.5,2,1.2  c0.5,2.6,3.1,14.9,10,19.9l0.9,7.1c0.1,1,1,1.8,2,1.8h12c1,0,1.9-0.8,2-1.8l0.9-7.1c6.9-5,9.5-17.3,10-19.9c0.5-0.6,1.2-1,2-1.1  c3.8-0.6,9.8,3.3,11.9,4.9c0.7,0.6,1.7,0.6,2.4,0C85.9,66.5,86.2,65.5,85.8,64.6z M35,62.1c0-0.3-0.1-0.5-0.3-0.8  c-1.2-1.8-2.9-2.9-4.9-3.2c-3-0.5-6.5,0.7-9.3,2.2C25,50.1,27.9,47,32,47c5.9,0,11.2,3,15.9,8.9c-1.1,2-2.2,4.3-3.1,6.8  c-2.1,5.8-3,11.5-3.4,15.1C36.7,72.4,35,62.2,35,62.1z M72.3,58c-0.1,0-0.1,0-0.2,0c-6.5-0.3-9.7,0.8-12.9,8.2c-0.4,1,0,2.2,1,2.6  c0.3,0.1,0.5,0.2,0.8,0.2c0.8,0,1.5-0.4,1.8-1.2c0.6-1.3,1.1-2.4,1.7-3.2c-1,4.2-3.6,12.7-8.5,15.7c0,0-0.1,0-0.1,0.1  c-0.1,0-0.1,0.1-0.2,0.1c0,0-0.1,0.1-0.1,0.1c0,0-0.1,0.1-0.1,0.1c0,0.1-0.1,0.1-0.1,0.2c0,0.1-0.1,0.1-0.1,0.2  c0,0.1-0.1,0.1-0.1,0.2c0,0.1,0,0.1-0.1,0.2c0,0.1,0,0.1,0,0.2c0,0,0,0.1,0,0.1L54.2,88h-8.5L45,81.9C45.1,79.5,47.4,47,67.8,47  c0,0,0.1,0,0.1,0c4.1,0,7,3.2,11.6,13.3C77.4,59.1,74.8,58.2,72.3,58z"/><path fill="#000000" d="M50.6,3C50.6,3,50.5,3,50.6,3C50.5,3,50.5,3,50.6,3c-0.2,0-0.2,0-0.3,0c-0.1,0-0.3,0-0.4,0  C36.8,3.8,34.3,26.6,33.7,43.9c0,1.1,0.8,2,1.9,2.1c0,0,0.1,0,0.1,0c1.1,0,2-0.8,2-1.9c0.1-1.6,0.1-3.2,0.2-4.7  c1.1,0.5,2.6,1.1,4.3,1.6c0,2.3,0,4.6,0,7.1c0,1.1,0.9,2,2,2s2-0.9,2-2c0-2.1,0-4.1,0-6.2c1.3,0.2,2.8,0.3,4.3,0.3  c1.3,0,2.6-0.1,4-0.3c0,2,0,4.1,0,6.2c0,1.1,0.9,2,2,2s2-0.9,2-2c0-2.4,0-4.8,0-7.1c1.2-0.4,2.4-0.8,3.7-1.4c0.1,1.5,0.1,3,0.2,4.5  c0,1.1,0.9,2,2.1,1.9c1.1,0,2-1,1.9-2.1C65.7,24.9,63.3,3.1,50.6,3z M40.6,19.9c0.7,0.3,1.6,0.7,2.7,1c-0.2,1.9-0.4,3.9-0.5,6.1  c-1.8-0.7-3-1.4-3.1-1.5c-0.1,0-0.1-0.1-0.2-0.1C39.7,23.4,40.1,21.6,40.6,19.9z M47.1,21.7c1,0.1,2.1,0.2,3.3,0.2  c1,0,2-0.1,3.1-0.2c0.2,2,0.4,4.1,0.5,6.3c-2.7,0.5-5.2,0.4-7.4,0C46.8,25.8,46.9,23.7,47.1,21.7z M53,17.8c-1.9,0.3-3.7,0.2-5.3,0  c0.6-3.9,1.5-7.1,2.6-9.2C51.5,10.7,52.4,13.9,53,17.8z M57.4,20.9c0.8-0.3,1.6-0.6,2.4-0.9c0.4,1.7,0.7,3.6,1,5.6  c-1,0.6-1.9,1-2.9,1.4C57.8,24.8,57.6,22.8,57.4,20.9z M58.7,16c-0.6,0.3-1.3,0.6-1.9,0.8c-0.5-3.1-1.2-5.8-2-8  C56.4,10.3,57.7,12.7,58.7,16z M45.8,9c-0.8,2.2-1.5,4.8-2,7.8c-0.8-0.3-1.5-0.6-2.1-0.8C42.8,12.8,44.2,10.5,45.8,9z M38.2,35  c0.2-1.9,0.3-3.7,0.6-5.4c0.9,0.4,2.1,1,3.7,1.5c-0.1,1.8-0.1,3.7-0.2,5.6C40.4,36.1,39,35.4,38.2,35z M46.3,37.8  c0-1.9,0.1-3.8,0.2-5.7c1.3,0.2,2.6,0.3,4,0.3c1.2,0,2.5-0.1,3.8-0.3c0.1,1.9,0.1,3.8,0.2,5.7C51.4,38.3,48.6,38.2,46.3,37.8z   M58.4,36.8c0-2-0.1-3.8-0.2-5.6c1.1-0.4,2.1-0.8,3.2-1.4c0.2,1.7,0.4,3.5,0.5,5.4C60.7,35.8,59.5,36.3,58.4,36.8z"/></svg>